HIERARCHY
ROOT hip
{
	OFFSET 0.000000 0.000000 0.000000
	CHANNELS 6 Xposition Yposition Zposition Xrotation Zrotation Yrotation 
	JOINT abdomen
	{
		OFFSET 0.000000 3.422050 0.000000
		CHANNELS 3 Xrotation Zrotation Yrotation 
		JOINT chest
		{
			OFFSET 0.000000 8.486693 -0.684411
			CHANNELS 3 Xrotation Zrotation Yrotation 
			JOINT neck
			{
				OFFSET 0.000000 10.266162 -0.273764
				CHANNELS 3 Xrotation Zrotation Yrotation 
				JOINT head
				{
					OFFSET 0.000000 3.148285 0.000000
					CHANNELS 3 Xrotation Zrotation Yrotation 
					End Site
					{
						OFFSET 0.000000 3.148289 0.000000
					}
				}
			}
			JOINT lCollar
			{
				OFFSET 3.422053 6.707223 -0.821293
				CHANNELS 3 Yrotation Zrotation Xrotation 
				JOINT lShldr
				{
					OFFSET 3.285171 0.000000 0.000000
					CHANNELS 3 Zrotation Yrotation Xrotation 
					JOINT lForeArm
					{
						OFFSET 10.129278 0.000000 0.000000
						CHANNELS 3 Yrotation Zrotation Xrotation 
						JOINT lHand
						{
							OFFSET 8.486692 0.000000 0.000000
							CHANNELS 3 Zrotation Yrotation Xrotation 
							End Site
							{
								OFFSET 4.106464 0.000000 0.000000
							}
						}
					}
				}
			}
			JOINT rCollar
			{
				OFFSET -3.558935 6.707223 -0.821293
				CHANNELS 3 Yrotation Zrotation Xrotation 
				JOINT rShldr
				{
					OFFSET -3.148289 0.000000 0.000000
					CHANNELS 3 Zrotation Yrotation Xrotation 
					JOINT rForeArm
					{
						OFFSET -10.266159 0.000000 0.000000
						CHANNELS 3 Yrotation Zrotation Xrotation 
						JOINT rHand
						{
							OFFSET -8.349810 0.000000 0.000000
							CHANNELS 3 Zrotation Yrotation Xrotation 
							End Site
							{
								OFFSET -4.106464 0.000000 0.000000
							}
						}
					}
				}
			}
		}
	}
	JOINT lThigh
	{
		OFFSET 5.338403 -1.642589 1.368821
		CHANNELS 3 Xrotation Zrotation Yrotation 
		JOINT lShin
		{
			OFFSET -2.053232 -20.121670 0.000000
			CHANNELS 3 Xrotation Zrotation Yrotation 
			JOINT lFoot
			{
				OFFSET 0.000000 -19.300380 -1.231939
				CHANNELS 3 Xrotation Yrotation Zrotation 
				End Site
				{
					OFFSET 0.000000 -2.463878 4.653993
				}
			}
		}
	}
	JOINT rThigh
	{
		OFFSET -5.338403 -1.642589 1.368821
		CHANNELS 3 Xrotation Zrotation Yrotation 
		JOINT rShin
		{
			OFFSET 2.053232 -20.121670 0.000000
			CHANNELS 3 Xrotation Zrotation Yrotation 
			JOINT rFoot
			{
				OFFSET 0.000000 -19.300380 -1.231939
				CHANNELS 3 Xrotation Yrotation Zrotation 
				End Site
				{
					OFFSET 0.000000 -2.463878 4.653993
				}
			}
		}
	}
}
MOTION
Frames: 19
Frame Time: 0.049989
0.000000 43.528500 0.000000 0.000000 0.000000 0.000000 0.000000 0.000000 0.000000 0.000000 0.000000 0.000000 0.000000 0.000000 0.000000 0.000000 0.000000 0.000000 0.000000 0.000000 0.000000 0.000000 0.000000 0.000000 0.000000 0.000000 0.000000 0.000000 0.000000 0.000000 0.000000 0.000000 0.000000 0.000000 0.000000 0.000000 0.000000 0.000000 0.000000 0.000000 0.000000 0.000000 0.000000 0.000000 0.000000 0.000000 0.000000 0.000000 0.000000 0.000000 0.000000 0.000000 0.000000 0.000000 0.000000 0.000000 0.000000 0.000000 0.000000 0.000000 
-0.543686 13.494123 -20.218157 71.996742 -0.011437 0.006818 -14.338778 -0.084855 -0.072155 52.607315 -0.341303 -0.591976 -42.002544 0.000000 0.000000 2.999106 0.000000 0.000000 20.502417 -5.465672 -16.560345 7.610913 -65.389542 -6.277065 -42.675747 18.720943 -1.889500 55.617577 10.779697 -3.162062 -18.879770 4.901224 -17.369463 -2.960060 63.709682 -2.195706 51.202530 -21.509451 1.347837 -54.932774 -14.663114 3.772182 -25.855955 43.184254 39.206558 60.683006 9.987696 39.215103 56.428604 -12.706093 20.238749 -25.849586 -43.191147 -39.233395 60.687653 -10.002431 -39.225372 56.424831 12.716100 -20.267563 
-0.543686 13.554865 -20.256205 71.996735 -0.011437 0.006818 -13.728430 -0.084830 -0.072191 51.610756 -0.341306 -0.591958 -39.818100 0.000000 0.000000 0.867373 0.000000 0.000000 20.678650 -5.582240 -16.304422 7.610913 -65.389542 -6.277064 -42.675747 18.720943 -1.889500 55.617573 10.779696 -3.162062 -18.995909 4.999553 -17.100935 -2.960059 63.709682 -2.195705 51.202530 -21.509451 1.347838 -54.932774 -14.663114 3.772182 -26.271053 43.175335 39.026756 60.683006 9.987696 39.215103 56.428600 -12.706093 20.238747 -26.264957 -43.182720 -39.053200 60.687645 -10.002431 -39.225368 56.424824 12.716098 -20.267563 
-0.543686 13.615606 -20.294252 71.996742 -0.011437 0.006818 -13.117814 -0.084804 -0.072227 50.612968 -0.341309 -0.591941 -37.620529 0.000000 0.000000 -1.276543 0.000000 0.000000 20.855471 -5.698037 -16.048061 7.610914 -65.389557 -6.277065 -42.675747 18.720943 -1.889500 55.617577 10.779698 -3.162063 -19.112545 5.097352 -16.832134 -2.960060 63.709682 -2.195706 51.202530 -21.509451 1.347837 -54.932774 -14.663116 3.772182 -26.686100 43.165470 38.847057 60.683014 9.987695 39.215103 56.428608 -12.706093 20.238750 -26.680300 -43.173351 -38.873100 60.687653 -10.002431 -39.225372 56.424831 12.716101 -20.267565 
-0.543686 13.676348 -20.332300 71.996742 -0.011437 0.006818 -12.506947 -0.084777 -0.072262 49.614132 -0.341311 -0.591924 -35.411343 0.000000 0.000000 -3.431233 0.000000 0.000000 21.032856 -5.813056 -15.791259 7.610913 -65.389542 -6.277065 -42.675747 18.720943 -1.889500 55.617577 10.779698 -3.162063 -19.229664 5.194612 -16.563066 -2.960060 63.709682 -2.195706 51.202530 -21.509451 1.347837 -54.932774 -14.663114 3.772182 -27.101076 43.154652 38.667469 60.683006 9.987696 39.215103 56.428604 -12.706093 20.238749 -27.095560 -43.163033 -38.693115 60.687653 -10.002431 -39.225372 56.424831 12.716100 -20.267563 
-0.543686 13.737089 -20.370348 71.996742 -0.011437 0.006818 -11.895874 -0.084750 -0.072298 48.614368 -0.341313 -0.591907 -33.192089 0.000000 0.000000 -5.595244 0.000000 0.000000 21.210815 -5.927293 -15.534027 7.610913 -65.389542 -6.277065 -42.675747 18.720943 -1.889500 55.617577 10.779697 -3.162062 -19.347271 5.291331 -16.293739 -2.960060 63.709682 -2.195706 51.202530 -21.509451 1.347837 -54.932774 -14.663114 3.772182 -27.515966 43.142883 38.488018 60.683006 9.987696 39.215103 56.428604 -12.706093 20.238749 -27.510750 -43.151752 -38.513241 60.687653 -10.002431 -39.225372 56.424831 12.716100 -20.267563 
-0.543686 13.797831 -20.408396 71.996742 -0.011437 0.006818 -11.284628 -0.084723 -0.072333 47.613850 -0.341314 -0.591889 -30.964390 0.000000 0.000000 -7.767088 0.000000 0.000000 21.389343 -6.040744 -15.276363 7.610913 -65.389542 -6.277065 -42.675751 18.720945 -1.889500 55.617580 10.779698 -3.162063 -19.465361 5.387506 -16.024151 -2.960060 63.709682 -2.195706 51.202538 -21.509453 1.347837 -54.932777 -14.663114 3.772182 -27.930761 43.130184 38.308716 60.683014 9.987697 39.215103 56.428608 -12.706093 20.238749 -27.925846 -43.139542 -38.333515 60.687653 -10.002432 -39.225372 56.424831 12.716100 -20.267563 
-0.543686 13.858572 -20.446444 71.996742 -0.011437 0.006818 -10.673242 -0.084695 -0.072368 46.612713 -0.341316 -0.591872 -28.729883 0.000000 0.000000 -9.945235 0.000000 0.000000 21.568426 -6.153400 -15.018276 7.610913 -65.389542 -6.277065 -42.675747 18.720943 -1.889500 55.617577 10.779697 -3.162062 -19.583931 5.483131 -15.754310 -2.960060 63.709682 -2.195706 51.202530 -21.509451 1.347837 -54.932774 -14.663114 3.772182 -28.345430 43.116516 38.129551 60.683006 9.987696 39.215103 56.428604 -12.706093 20.238749 -28.340815 -43.126354 -38.153931 60.687645 -10.002431 -39.225368 56.424831 12.716100 -20.267563 
-0.543686 13.919313 -20.484491 71.996742 -0.011437 0.006818 -10.061751 -0.084667 -0.072402 45.611130 -0.341317 -0.591855 -26.490238 0.000000 0.000000 -12.128134 0.000000 0.000000 21.748066 -6.265257 -14.759768 7.610913 -65.389542 -6.277065 -42.675743 18.720943 -1.889501 55.617573 10.779696 -3.162062 -19.702974 5.578202 -15.484210 -2.960060 63.709682 -2.195706 51.202530 -21.509451 1.347837 -54.932774 -14.663114 3.772182 -28.759964 43.101906 37.950573 60.683006 9.987696 39.215103 56.428604 -12.706093 20.238749 -28.755663 -43.112232 -37.974525 60.687653 -10.002431 -39.225368 56.424824 12.716100 -20.267563 
-0.543686 13.980055 -20.522539 71.996742 -0.011437 0.006818 -9.450190 -0.084639 -0.072436 44.609222 -0.341317 -0.591837 -24.247166 0.000000 0.000000 -14.314212 0.000000 0.000000 21.928247 -6.376309 -14.500842 7.610913 -65.389534 -6.277064 -42.675747 18.720943 -1.889500 55.617569 10.779697 -3.162063 -19.822489 5.672716 -15.213862 -2.960060 63.709682 -2.195706 51.202526 -21.509451 1.347836 -54.932766 -14.663114 3.772182 -29.174337 43.086342 37.771774 60.683002 9.987696 39.215099 56.428604 -12.706094 20.238747 -29.170351 -43.097164 -37.795300 60.687645 -10.002431 -39.225368 56.424831 12.716100 -20.267563 
-0.543686 14.040796 -20.560587 71.996742 -0.011437 0.006818 -8.838595 -0.084610 -0.072470 43.607174 -0.341318 -0.591820 -22.002369 0.000000 0.000000 -16.501888 0.000000 0.000000 22.108986 -6.486554 -14.241508 7.610913 -65.389542 -6.277065 -42.675747 18.720943 -1.889500 55.617577 10.779698 -3.162063 -19.942474 5.766669 -14.943269 -2.960060 63.709682 -2.195706 51.202530 -21.509451 1.347837 -54.932774 -14.663114 3.772182 -29.588543 43.069843 37.593185 60.683014 9.987695 39.215103 56.428604 -12.706093 20.238749 -29.584890 -43.081146 -37.616268 60.687653 -10.002431 -39.225372 56.424831 12.716100 -20.267563 
-0.543686 14.101538 -20.598635 71.996742 -0.011437 0.006818 -8.226999 -0.084581 -0.072504 42.605122 -0.341318 -0.591802 -19.757570 0.000000 0.000000 -18.689564 0.000000 0.000000 22.290260 -6.595984 -13.981768 7.610913 -65.389542 -6.277065 -42.675747 18.720943 -1.889500 55.617577 10.779697 -3.162062 -20.062920 5.860056 -14.672435 -2.960060 63.709682 -2.195706 51.202530 -21.509451 1.347837 -54.932774 -14.663114 3.772182 -30.002573 43.052414 37.414814 60.683006 9.987696 39.215103 56.428604 -12.706093 20.238749 -29.999233 -43.064171 -37.437447 60.687645 -10.002431 -39.225368 56.424831 12.716100 -20.267563 
-0.543686 14.162279 -20.636683 71.996742 -0.011437 0.006818 -7.615440 -0.084552 -0.072537 41.603230 -0.341317 -0.591785 -17.514494 0.000000 0.000000 -20.875641 0.000000 0.000000 22.472076 -6.704595 -13.721633 7.610914 -65.389557 -6.277065 -42.675747 18.720943 -1.889500 55.617577 10.779698 -3.162063 -20.183828 5.952875 -14.401361 -2.960060 63.709682 -2.195706 51.202538 -21.509451 1.347838 -54.932777 -14.663116 3.772182 -30.416384 43.034027 37.236668 60.683014 9.987696 39.215107 56.428604 -12.706093 20.238749 -30.413385 -43.046268 -37.258850 60.687653 -10.002430 -39.225372 56.424831 12.716100 -20.267563 
-0.543686 14.223021 -20.674730 71.996742 -0.011437 0.006818 -7.003948 -0.084522 -0.072570 40.601635 -0.341317 -0.591767 -15.274858 0.000000 0.000000 -23.058540 0.000000 0.000000 22.654415 -6.812379 -13.461095 7.610913 -65.389542 -6.277065 -42.675747 18.720943 -1.889500 55.617577 10.779697 -3.162062 -20.305201 6.045123 -14.130054 -2.960060 63.709682 -2.195706 51.202530 -21.509451 1.347837 -54.932774 -14.663114 3.772182 -30.829979 43.014706 37.058769 60.683006 9.987697 39.215103 56.428604 -12.706093 20.238749 -30.827309 -43.027409 -37.080490 60.687653 -10.002431 -39.225372 56.424831 12.716100 -20.267563 
-0.543686 14.283762 -20.712778 71.996742 -0.011437 0.006818 -6.392563 -0.084492 -0.072603 39.600502 -0.341316 -0.591750 -13.040348 0.000000 0.000000 -25.236691 0.000000 0.000000 22.837276 -6.919332 -13.200166 7.610913 -65.389542 -6.277065 -42.675747 18.720943 -1.889500 55.617573 10.779696 -3.162062 -20.427017 6.136791 -13.858513 -2.960060 63.709682 -2.195706 51.202530 -21.509451 1.347837 -54.932774 -14.663114 3.772182 -31.243349 42.994461 36.881145 60.683006 9.987696 39.215103 56.428604 -12.706093 20.238749 -31.241022 -43.007633 -36.902401 60.687653 -10.002431 -39.225372 56.424831 12.716100 -20.267563 
-0.543686 14.344503 -20.750826 71.996742 -0.011437 0.006818 -5.781315 -0.084461 -0.072635 38.599983 -0.341315 -0.591733 -10.812647 0.000000 0.000000 -27.408527 0.000000 0.000000 23.020658 -7.025452 -12.938850 7.610913 -65.389542 -6.277065 -42.675747 18.720943 -1.889500 55.617569 10.779697 -3.162063 -20.549286 6.227880 -13.586747 -2.960060 63.709682 -2.195706 51.202530 -21.509449 1.347837 -54.932774 -14.663114 3.772182 -31.656445 42.973251 36.703781 60.683002 9.987693 39.215099 56.428604 -12.706093 20.238749 -31.654465 -42.986889 -36.724560 60.687645 -10.002431 -39.225368 56.424831 12.716100 -20.267563 
-0.543686 14.405245 -20.788874 71.996742 -0.011437 0.006818 -5.170243 -0.084430 -0.072667 37.600231 -0.341313 -0.591715 -8.593401 0.000000 0.000000 -29.572540 0.000000 0.000000 23.204556 -7.130731 -12.677156 7.610913 -65.389542 -6.277065 -42.675747 18.720943 -1.889500 55.617573 10.779696 -3.162062 -20.672003 6.318386 -13.314755 -2.960059 63.709675 -2.195706 51.202526 -21.509451 1.347836 -54.932766 -14.663114 3.772182 -32.069283 42.951130 36.526707 60.683006 9.987697 39.215099 56.428604 -12.706093 20.238749 -32.067657 -42.965225 -36.547012 60.687653 -10.002431 -39.225372 56.424828 12.716098 -20.267563 
-0.543686 14.465986 -20.826921 71.996742 -0.011437 0.006818 -4.559379 -0.084399 -0.072699 36.601376 -0.341311 -0.591698 -6.384209 0.000000 0.000000 -31.727230 0.000000 0.000000 23.388962 -7.235167 -12.415090 7.610913 -65.389542 -6.277065 -42.675747 18.720943 -1.889500 55.617577 10.779697 -3.162062 -20.795166 6.408303 -13.042546 -2.960060 63.709682 -2.195706 51.202530 -21.509451 1.347837 -54.932774 -14.663114 3.772182 -32.481842 42.928082 36.349945 60.683014 9.987693 39.215103 56.428604 -12.706093 20.238749 -32.480568 -42.942635 -36.369774 60.687653 -10.002431 -39.225372 56.424831 12.716100 -20.267563 
-0.543686 14.526728 -20.864969 71.996742 -0.011437 0.006818 -3.948757 -0.084368 -0.072730 35.603607 -0.341309 -0.591681 -4.186638 0.000000 0.000000 -33.871143 0.000000 0.000000 23.573868 -7.338751 -12.152649 7.610913 -65.389542 -6.277065 -42.675747 18.720943 -1.889500 55.617577 10.779698 -3.162063 -20.918758 6.497629 -12.770120 -2.960060 63.709682 -2.195706 51.202530 -21.509451 1.347837 -54.932777 -14.663114 3.772182 -32.894096 42.904099 36.173500 60.683014 9.987695 39.215103 56.428604 -12.706093 20.238749 -32.893177 -42.919106 -36.192844 60.687653 -10.002430 -39.225372 56.424831 12.716100 -20.267563 
